<svg width="64" height="64" viewBox="0 0 64 64" fill="none" xmlns="http://www.w3.org/2000/svg">
<path d="M60 11H4C3.73478 11 3.48043 11.1054 3.29289 11.2929C3.10536 11.4804 3 11.7348 3 12V52C3 52.2652 3.10536 52.5196 3.29289 52.7071C3.48043 52.8946 3.73478 53 4 53H60C60.2652 53 60.5196 52.8946 60.7071 52.7071C60.8946 52.5196 61 52.2652 61 52V12C61 11.7348 60.8946 11.4804 60.7071 11.2929C60.5196 11.1054 60.2652 11 60 11ZM59 51H5V23H59V51ZM59 21H5V13H59V21Z" fill="rgb(255,120,45)"></path>
<path d="M10.5 18.5C11.3284 18.5 12 17.8284 12 17C12 16.1716 11.3284 15.5 10.5 15.5C9.67157 15.5 9 16.1716 9 17C9 17.8284 9.67157 18.5 10.5 18.5Z" fill="rgb(255,120,45)"></path>
<path d="M15 18.5C15.8284 18.5 16.5 17.8284 16.5 17C16.5 16.1716 15.8284 15.5 15 15.5C14.1716 15.5 13.5 16.1716 13.5 17C13.5 17.8284 14.1716 18.5 15 18.5Z" fill="rgb(255,120,45)"></path>
<path d="M19.5 18.5C20.3284 18.5 21 17.8284 21 17C21 16.1716 20.3284 15.5 19.5 15.5C18.6716 15.5 18 16.1716 18 17C18 17.8284 18.6716 18.5 19.5 18.5Z" fill="rgb(255,120,45)"></path>
<path d="M35 18H55C55.2652 18 55.5196 17.8946 55.7071 17.7071C55.8946 17.5196 56 17.2652 56 17C56 16.7348 55.8946 16.4804 55.7071 16.2929C55.5196 16.1054 55.2652 16 55 16H35C34.7348 16 34.4804 16.1054 34.2929 16.2929C34.1054 16.4804 34 16.7348 34 17C34 17.2652 34.1054 17.5196 34.2929 17.7071C34.4804 17.8946 34.7348 18 35 18Z" fill="rgb(255,120,45)"></path>
<path d="M14.9999 38.33L24.8399 42.6C24.9979 42.6676 25.1681 42.7016 25.3399 42.7C25.6356 42.6937 25.9202 42.586 26.146 42.395C26.3717 42.2039 26.525 41.9411 26.5801 41.6505C26.6351 41.3599 26.5887 41.0592 26.4485 40.7987C26.3083 40.5383 26.0828 40.334 25.8099 40.22L16.7299 36.65L25.7999 33.16C26.0443 33.0621 26.2529 32.8918 26.3977 32.6719C26.5425 32.4521 26.6166 32.1931 26.6099 31.93C26.6099 31.5931 26.4761 31.2701 26.238 31.0319C25.9998 30.7938 25.6768 30.66 25.3399 30.66C25.1681 30.6583 24.9979 30.6924 24.8399 30.76L14.9999 35C14.7737 35.0978 14.5811 35.2598 14.446 35.466C14.3109 35.6722 14.2393 35.9135 14.2399 36.16V37.16C14.2373 37.4082 14.308 37.6516 14.4432 37.8598C14.5784 38.0679 14.7721 38.2315 14.9999 38.33Z" fill="rgb(255,120,45)"></path>
<path d="M29.92 46.1001C30.117 46.1162 30.3138 46.067 30.48 45.9601C30.6224 45.8268 30.7261 45.6575 30.78 45.4701C30.87 45.1801 30.97 44.8001 31.09 44.3101L34.76 29.2101C34.8906 28.7603 34.9711 28.2975 35 27.8301C35.0108 27.7254 34.9975 27.6195 34.9611 27.5207C34.9247 27.4219 34.8662 27.3328 34.79 27.2601C34.581 27.1023 34.3209 27.0275 34.06 27.0501C33.7 27.0501 33.48 27.1301 33.38 27.3001C33.1411 27.788 32.9695 28.306 32.87 28.8401L29.24 43.9301C29.121 44.396 29.0407 44.871 29 45.3501C29 45.8001 29.15 46.1001 29.92 46.1001Z" fill="rgb(255,120,45)"></path>
<path d="M37.4 41.4601C37.4 41.7969 37.5338 42.1199 37.7719 42.3581C38.0101 42.5963 38.3331 42.7301 38.67 42.7301C38.8424 42.7283 39.0127 42.6908 39.17 42.6201L49 38.3301C49.2262 38.2322 49.4188 38.0702 49.5539 37.864C49.689 37.6578 49.7606 37.4166 49.76 37.1701V36.1701C49.7506 35.931 49.6744 35.6994 49.5401 35.5014C49.4058 35.3034 49.2187 35.1471 49 35.0501L39.16 30.8101C39.0027 30.7393 38.8324 30.7018 38.66 30.7001C38.3608 30.6961 38.0699 30.798 37.8384 30.9876C37.607 31.1772 37.4499 31.4424 37.3949 31.7365C37.3399 32.0306 37.3905 32.3347 37.5378 32.5951C37.6852 32.8555 37.9133 33.0518 38.18 33.15L49 36.2001C49.258 36.3031 49.4624 36.5253 49.57 36.77C49.6776 37.0146 49.6683 37.2901 49.54 37.56L43.56 41.6301C43.3287 41.8701 43.0523 42.035 42.75 42.1C42.5425 42.1423 42.3208 42.1719 42.11 42.1701C41.8989 42.1701 41.6957 42.0948 41.5399 41.94C41.3841 41.7852 41.3087 41.5803 41.3099 41.3701C41.3101 41.1598 41.3913 40.9506 41.55 40.7701C41.8287 40.3901 42.394 40.2672 43.9 40.3301C44.1253 40.3357 44.3268 40.3926 44.4872 40.4875C44.6477 40.5825 44.7614 40.7072 44.81 40.8501C44.8701 41.0406 44.8701 41.2901 44.83 41.4801C44.7886 41.6716 44.6456 41.8281 44.44 41.91L41.0799 44.3601C40.6648 44.5903 40.1985 44.7817 39.68 44.91C39.2845 44.8908 38.8617 44.8757 38.65 44.6801C38.4383 44.4866 38.28 44.2901 38.09 44.09C37.8936 43.8899 37.6991 43.6888 37.5301 43.4901C37.4736 43.4198 37.4265 43.3467 37.39 43.2701C37.3685 43.2018 37.3296 43.1351 37.2799 43.0701C37.2465 43.0191 37.2078 42.9662 37.16 42.91C37.0561 42.6827 36.8741 42.4907 36.63 42.35C36.2447 42.0444 35.6678 41.9772 35.27 42.0801C34.9701 42.1567 34.6856 42.2241 34.41 42.2901C34.3416 42.2901 34.2701 42.2901 34.20 42.2901C34.0204 42.2889 33.8411 42.2898 33.6601 42.2901C33.4791 42.2901 33.2985 42.2909 33.12 42.2901C32.9347 42.2935 32.75 42.2761 32.56 42.25C32.30 42.2151 32.06 42.1752 31.82 42.14C31.7431 42.1219 31.6691 42.0951 31.6001 42.0701C31.6501 42.0104 31.7017 41.9525 31.76 41.9001C31.7977 41.8718 31.8384 41.8494 31.88 41.8301C31.9234 41.8106 31.9666 41.7978 32.01 41.78C32.0977 41.7379 32.1994 41.7045 32.27 41.61C32.4025 41.3359 32.626 41.2246 32.89 41.0801C33.0412 41.0033 33.2041 40.9655 33.36 41.2001C33.516 41.4347 33.6808 41.8447 33.66 42.5C33.6601 42.6901 33.6101 42.8999 33.5401 43.1001C33.3484 43.3586 32.9066 43.5932 32.57 43.6401C32.4914 43.6462 32.4171 43.6449 32.346 43.63C32.0785 43.5694 31.8288 43.5165 31.5788 43.4743C31.3288 43.4321 31.0681 43.3957 30.79 43.3701L24.94 43.0301L21.54 43.5701C21.2627 43.6315 20.9676 43.6585 20.68 43.6401C20.3976 43.6191 20.0953 43.5706 19.79 43.5001C19.56 43.4401 19.32 43.3701 19.1 43.2901C19.0982 43.2925 19.0943 43.2946 19.09 43.3001C19.0224 43.2912 18.9551 43.2945 18.8899 43.3001C18.8183 43.3078 18.7483 43.3221 18.68 43.34C18.5835 43.368 18.4865 43.3938 18.39 43.4101L18.48 43.4101C18.7405 43.4222 19.0025 43.4628 19.25 43.52C19.5 43.5778 19.7394 43.6634 19.96 43.7801C20.0372 43.8376 20.1075 43.8853 20.1789 43.9347C20.3391 44.0469 20.5329 44.1433 20.73 44.24L22.44 43.0601C22.4002 43.0703 22.3621 43.0779 22.32 43.0801C22.1003 43.0971 21.8665 43.0691 21.65 43.01C21.5094 42.9739 21.3885 42.9259 21.28 42.8801C21.0352 42.7518 20.83 42.5604 20.72 42.3001C20.69 42.2001 20.64 42.0801 20.57 41.9501C20.356 41.575 20.0056 41.0633 19.55 40.87C19.14 40.695 18.692 40.647 18.38 40.68C18.079 40.7143 17.7844 40.7931 17.5 40.9201C17.1217 41.0267 16.7786 41.22 16.62 41.4901C16.5426 41.5825 16.4737 41.6715 16.41 41.76C16.298 41.8857 16.1871 42.0296 16.09 42.16C15.9693 42.3678 15.8718 42.5893 15.77 42.8201C15.7666 42.8596 15.7631 42.8981 15.76 42.9301C15.7544 43.0259 15.761 43.1213 15.77 43.22C15.7807 43.2721 15.7914 43.324 15.802 43.3701C15.8107 43.3853 15.8188 43.4003 15.82 43.41C15.8277 43.4543 15.8251 43.4866 15.83 43.5201C15.83 43.5401 15.83 43.5601 15.83 43.5701C15.83 43.5757 15.8294 43.5801 15.83 43.5801C15.8391 43.5832 15.848 43.5845 15.855 43.5901C15.8666 43.6067 15.8766 43.6228 15.886 43.6401C15.8956 43.6565 15.9043 43.6697 15.9105 43.68C15.9168 43.6903 15.9211 43.6946 15.9301 43.7001C15.9385 43.7093 15.9471 43.7181 15.955 43.7301C15.9624 43.7408 15.9703 43.754 15.975 43.7701C15.9773 43.7795 15.9795 43.7901 15.99 43.8001C16.0031 43.8162 16.0136 43.8347 16.02 43.8501C16.0262 43.866 16.0335 43.8843 16.03 43.9001C16.0261 43.9168 16.0234 43.9345 16.02 43.9501C16.0176 43.9645 16.0146 43.9763 16.01 43.9901C16.0068 44.0034 16.0025 44.0161 16 44.0301C15.9963 44.0435 15.9921 44.0563 15.9901 44.0701C15.9864 44.0843 15.9835 44.0959 15.9799 44.1101C15.9767 44.1224 15.9733 44.1374 15.9701 44.1501C15.9673 44.1602 15.9646 44.1702 15.9601 44.1801C15.9524 44.2071 15.9318 44.2153 15.91 44.2201C15.8713 44.2355 15.8258 44.2698 15.79 44.3101C15.7601 44.3701 15.7501 44.4301 15.7401 44.4901C15.7279 44.572 15.6774 44.6097 15.6501 44.6201C15.6106 44.6305 15.5728 44.6262 15.54 44.6201C15.5234 44.6176 15.5023 44.6175 15.49 44.6201C15.4773 44.6232 15.4623 44.6276 15.45 44.6301C15.4332 44.6325 15.4166 44.6346 15.4 44.6301C15.3898 44.6287 15.3796 44.6283 15.3699 44.63C15.3602 44.6317 15.3513 44.633 15.3401 44.6301C15.2905 44.6152 15.2595 44.6217 15.25 44.6201C15.2444 44.619 15.2364 44.6198 15.23 44.6201C15.2236 44.6203 15.2185 44.6212 15.21 44.6201C15.1783 44.6161 15.1433 44.6136 15.11 44.61C15.0545 44.605 15.0004 44.5985 14.95 44.5901C14.865 44.561 14.82 44.5101 14.8 44.4501C14.7795 44.3584 14.7526 44.2659 14.72 44.1701C14.6653 44.0088 14.6037 43.8474 14.54 43.6901C14.4763 43.5318 14.4064 43.3849 14.34 43.25C14.3232 43.2049 14.308 43.1565 14.2901 43.1101C14.1949 42.8015 14.1023 42.5088 14.01 42.2401C14.02 42.2634 14.0297 42.2868 14.04 42.3101C14.0795 42.4862 14.13 42.67 14.19 42.85C14.1928 42.8653 14.1957 42.8806 14.2 42.89C14.20 42.8897 14.2005 42.8899 14.2 42.89L14.2 42.91C14.1959 42.9145 14.192 42.919 14.19 42.9201C14.19 42.9301 14.1901 42.9301 14.1901 42.9301C14.1916 42.9317 14.1925 42.9332 14.2 42.9301C14.1997 42.9395 14.1991 42.9485 14.2001 42.9601C14.2035 43.0227 14.2078 43.0856 14.21 43.1401C14.2014 43.2159 14.2088 43.2934 14.19 43.36C14.1387 43.6414 14.0796 43.9252 14.0201 44.21C14.0203 44.2145 14.02 44.2201 14.02 44.2201C14.0248 44.2498 14.0247 44.2777 14.0201 44.3001C14.0142 44.327 14.0142 44.3524 14.0201 44.3801C14.0201 44.3802 14.0201 44.3801 14.0201 44.3801C14.0201 44.3802 14.0201 44.3801 14.0201 44.3801C14.0201 44.3801 14.0201 44.3801 14.0201 44.3801C14.0201 44.3801 14.0201 44.3801 14.0201 44.3801C14.0201 44.3801 14.0201 44.3801 14.0201 44.3801C14.0201 44.3801 14.0201 44.3801 14.0201 44.3801C14.0201 44.3801 14.0201 44.3801 14.0201 44.3801C14.0201 44.3801 14.0201 44.3801 14.0201 44.3801C14.0201 44.3801 14.0201 44.3801 14.0201 44.3801L14.02 44.39L14.02 44.39C14.02 44.3913 14.0199 44.3925 14.02 44.3901L14.02 44.3901C14.0203 44.3901 14.0202 44.3901 14.0202 44.3901C14.0201 44.3901 14.0201 44.3901 14.0201 44.3901L14.0201 44.3901C14.0199 44.3901 14.0199 44.3901 14.02 44.3901C14.0201 44.3901 14.0201 44.3901 14.0201 44.3901L14.0201 44.3901L14.0201 44.3901C14.0201 44.3901 14.0201 44.3901 14.0201 44.3901C14.0201 44.3901 14.0201 44.3901 14.0201 44.3901C14.0201 44.3901 14.0201 44.3901 14.0201 44.3901C14.0201 44.3901 14.0201 44.3901 14.0201 44.3901L14.0201 44.3901L14.0201 44.3901C14.0201 44.3901 14.0201 44.3901 14.0201 44.3901C14.0201 44.3901 14.0201 44.3901 14.0201 44.3901C14.0201 44.3901 14.0201 44.3901 14.0201 44.3901L14.0201 44.3901L14.0201 44.3901C14.0201 44.3901 14.0201 44.3901 14.0201 44.3901C14.0201 44.3901 14.0201 44.3901 14.0201 44.3901L14.0201 44.3901C14.0201 44.3901 14.0201 44.3901 14.0201 44.3901C14.0201 44.3901 14.0201 44.3901 14.0201 44.3901C14.0201 44.3901 14.0201 44.3901 14.0201 44.3901C14.0201 44.3901 14.0201 44.3901 14.0201 44.3901C14.0201 44.3901 14.0201 44.3901 14.0201 44.3901C14.0201 44.3901 14.0201 44.3901 14.0201 44.3901C14.0201 44.3901 14.0201 44.3901 14.0201 44.3901C14.0201 44.3901 14.0201 44.3901 14.0201 44.3901C14.0201 44.3901 14.0201 44.3901 14.0201 44.3901C14.0201 44.3901 14.0201 44.3901 14.0201 44.3901C14.0201 44.3901 14.0201 44.3901 14.0201 44.3901C14.0201 44.3901 14.0201 44.3901 14.0201 44.3901C14.0201 44.3901 14.0201 44.3901 14.0201 44.3901C14.0201 44.3901 14.0201 44.3901 14.0201 44.3901C14.0201 44.3901 14.0201 44.3901 14.0201 44.3901C14.0201 44.3901 14.0201 44.3901 14.0201 44.3901C14.0201 44.3901 14.0201 44.3901 14.0201 44.3901C14.0201 44.3901 14.0201 44.3901 14.0201 44.3901C14.0201 44.3901 14.0201 44.3901 14.0201 44.3901C14.0201 44.3901 14.0201 44.3901 14.0201 44.3901C14.0201 44.3901 14.0201 44.3901 14.0201 44.3901C14.0201 44.3901 14.0201 44.3901 14.0201 44.3901L14.0201 44.3901Z"
            fill="rgb(255,120,45)" />
    </svg>