<svg id="Layer_1" data-name="Layer 1" xmlns="http://www.w3.org/2000/svg" viewBox="0 0 48 48">
  <title>Photography</title>
  <path fill="rgb(255, 120, 45)" d="M42,12H35.07a2,2,0,0,1-1.664-.891L31.187,7.781A4,4,0,0,0,27.859,6H20.141a4,4,0,0,0-3.328,1.781l-2.219,3.328A2,2,0,0,1,12.93,12H12V11a1,1,0,0,0-1-1H8a1,1,0,0,0-1,1v1H6a4,4,0,0,0-4,4V37a4,4,0,0,0,4,4H42a4,4,0,0,0,4-4V16A4,4,0,0,0,42,12ZM24,37A11.5,11.5,0,1,1,35.5,25.5,11.5,11.5,0,0,1,24,37Z"></path>
  <path fill="rgb(255, 120, 45)" d="M24,18a7.5,7.5,0,1,0,7.5,7.5A7.5,7.5,0,0,0,24,18Zm0,12a4.505,4.505,0,0,1-4.5-4.5,1,1,0,0,1,2,0A2.5,2.5,0,0,0,24,28a1,1,0,0,1,0,2Z"></path>
</svg>
