<svg xmlns="http://www.w3.org/2000/svg" viewBox="0 0 64 64">
  <title>Camera, Video, Videography, Film</title>
  <g id="Layer_30" data-name="Layer 30">
    <path fill="rgb(255, 120, 45)" d="M61,29.25a2,2,0,0,0-2,.05l-8,5a2,2,0,1,0,2.12,3.4L58,34.61V46.76l-10-5V29a6,6,0,0,0-4.45-5.77A12.29,12.29,0,0,0,44,20a12,12,0,0,0-22.68-5.47A10,10,0,0,0,6,23c0,.12,0,.23,0,.34A6,6,0,0,0,2,29V50a6,6,0,0,0,6,6H42a6,6,0,0,0,6-6V46.24l11.11,5.55a2,2,0,0,0,1.94-.09A2,2,0,0,0,62,50V31A2,2,0,0,0,61,29.25ZM10,46h4a2,2,0,0,1,0,4H10a2,2,0,0,1,0-4Zm6-29a5.93,5.93,0,0,1,4.65,2.22l.07.06a1.06,1.06,0,0,0,.15.15l.14.12.16.11.17.1.18.07.2.06.08,0h.1l.21,0h.18l.21,0,.17,0,.2-.06.17-.07.18-.09.16-.11.09-.05.06-.07.15-.14.12-.15.11-.16.1-.18.07-.16.06-.21,0-.08A8,8,0,1,1,32,28a7.93,7.93,0,0,1-6.63-3.54s0,0-.05-.05a1.47,1.47,0,0,0-.23-.31L25,24a1.6,1.6,0,0,0-.35-.28l0,0a2.57,2.57,0,0,0-.41-.19h-.09a1.66,1.66,0,0,0-.49-.07h-.06a1.87,1.87,0,0,0-.34,0h-.06l-.31.1-.06,0a2.69,2.69,0,0,0-.29.16l0,0a2.65,2.65,0,0,0-.26.21l0,0a2.31,2.31,0,0,0-.2.24.43.43,0,0,1,0,.07c-.05.08-.1.16-.14.24s0,.09,0,.13a.31.31,0,0,1-.05.1A6,6,0,1,1,16,17Z"></path>
  </g>
</svg>
